<svg fill="#FFFFFF" xmlns="http://www.w3.org/2000/svg"  viewBox="0 0 80 80" width="80px" height="80px"><path d="M 40.5 10 C 36.921875 10 34 12.921875 34 16.5 C 34 20.078125 36.921875 23 40.5 23 C 44.078125 23 47 20.078125 47 16.5 C 47 12.921875 44.078125 10 40.5 10 Z M 40.5 12 C 42.996094 12 45 14.003906 45 16.5 C 45 18.996094 42.996094 21 40.5 21 C 38.003906 21 36 18.996094 36 16.5 C 36 14.003906 38.003906 12 40.5 12 Z M 20.5 21 C 19.316406 21 18.269531 21.601563 17.636719 22.503906 C 17.625 22.519531 17.617188 22.53125 17.605469 22.542969 L 10.746094 31.339844 C 10.605469 31.519531 10.53125 31.746094 10.535156 31.972656 C 10.285156 32.449219 10 32.917969 10 33.5 C 10 35.421875 11.578125 37 13.5 37 C 14.527344 37 15.402344 36.492188 16.042969 35.777344 C 16.097656 35.832031 16.164063 35.882813 16.234375 35.921875 L 17.824219 36.871094 C 17.109375 38.234375 16.496094 39.910156 16.269531 40.65625 C 16.121094 41.140625 14.378906 47.082031 12.636719 53.027344 C 10.894531 58.972656 9.179688 64.828125 9.179688 64.828125 C 9.148438 64.929688 9.136719 65.039063 9.140625 65.144531 C 9.074219 65.414063 9 65.683594 9 66 C 9 68.199219 10.800781 70 13 70 C 14.519531 70 15.722656 69.058594 16.394531 67.804688 C 16.574219 67.683594 16.707031 67.511719 16.777344 67.3125 L 23.15625 49.234375 L 28 55.765625 L 28 66 C 28 68.199219 29.800781 70 32 70 C 34.199219 70 36 68.199219 36 66 L 36 54 C 36 53.476563 35.878906 52.992188 35.703125 52.546875 C 35.6875 52.464844 35.660156 52.386719 35.625 52.3125 L 32.390625 45.546875 L 37.023438 48.308594 C 37.054688 48.324219 37.089844 48.34375 37.125 48.359375 C 37.511719 49.867188 38.875 51 40.5 51 C 40.792969 51 41.074219 50.949219 41.347656 50.878906 L 51.398438 56.867188 C 51.285156 56.996094 51.160156 57.160156 51.066406 57.234375 C 51.121094 57.191406 50.925781 57.292969 50.546875 57.324219 C 50.171875 57.351563 49.648438 57.351563 49.074219 57.375 C 47.921875 57.429688 46.429688 57.597656 45.378906 58.769531 C 44.511719 59.742188 43.472656 61.359375 42.59375 63.210938 C 41.710938 65.0625 41 67.113281 41 69 C 40.996094 69.359375 41.183594 69.695313 41.496094 69.878906 C 41.808594 70.058594 42.191406 70.058594 42.503906 69.878906 C 42.816406 69.695313 43.003906 69.359375 43 69 C 43 67.652344 43.59375 65.765625 44.398438 64.066406 C 45.203125 62.371094 46.226563 60.824219 46.871094 60.105469 C 47.335938 59.585938 48.152344 59.421875 49.164063 59.375 C 49.671875 59.351563 50.195313 59.359375 50.714844 59.316406 C 51.230469 59.273438 51.78125 59.222656 52.3125 58.800781 C 53.679688 57.714844 54.644531 55.722656 55.871094 53.984375 C 56.484375 53.117188 57.128906 52.328125 57.765625 51.792969 C 58.402344 51.257813 58.980469 51 59.558594 51 C 60.550781 51 62.796875 52.417969 64.726563 55.007813 C 66.65625 57.597656 68.375 61.222656 69.015625 65.160156 C 69.058594 65.523438 69.296875 65.835938 69.640625 65.972656 C 69.980469 66.105469 70.367188 66.042969 70.648438 65.808594 C 70.929688 65.570313 71.058594 65.199219 70.984375 64.839844 C 70.289063 60.539063 68.453125 56.660156 66.328125 53.8125 C 64.207031 50.964844 61.902344 49 59.558594 49 C 58.371094 49 57.335938 49.542969 56.480469 50.261719 C 55.621094 50.980469 54.898438 51.894531 54.234375 52.832031 C 53.644531 53.667969 53.097656 54.507813 52.59375 55.253906 L 43.21875 49.667969 C 43.699219 49.070313 44 48.320313 44 47.5 C 44 47.34375 43.980469 47.238281 43.964844 47.121094 C 43.964844 47.0625 43.960938 47.003906 43.953125 46.941406 L 43.9375 46.863281 C 43.9375 46.851563 43.9375 46.839844 43.933594 46.828125 L 43.933594 46.820313 L 40.933594 28.273438 C 40.917969 28.183594 40.890625 28.09375 40.855469 28.011719 C 40.597656 27.050781 39.96875 26.273438 39.164063 25.738281 L 39.148438 25.71875 C 39.066406 25.613281 38.964844 25.523438 38.847656 25.453125 L 32 21.542969 C 31.941406 21.507813 31.878906 21.480469 31.816406 21.457031 C 31.28125 21.183594 30.667969 21 30 21 Z M 20.5 23 L 30 23 C 30.347656 23 30.671875 23.097656 30.980469 23.269531 C 31.035156 23.304688 31.097656 23.332031 31.160156 23.351563 L 31.121094 23.34375 L 37.679688 27.09375 L 37.574219 26.953125 C 37.664063 27.070313 37.777344 27.164063 37.910156 27.234375 C 38.453125 27.511719 38.84375 28.015625 38.960938 28.621094 C 38.984375 28.75 39.039063 28.875 39.109375 28.984375 L 39 28.835938 L 41.824219 46.3125 L 42.765625 46.125 C 42.265625 46.222656 41.925781 46.679688 41.964844 47.183594 C 41.964844 47.210938 41.96875 47.238281 41.972656 47.265625 C 41.992188 47.382813 42 47.457031 42 47.5 C 42 48.339844 41.339844 49 40.5 49 C 39.699219 49 39.070313 48.394531 39.015625 47.609375 C 39.011719 47.574219 39.007813 47.542969 39.003906 47.511719 C 38.746094 46.03125 37.292969 37.722656 36.40625 34.15625 C 36.3125 33.761719 35.988281 33.464844 35.589844 33.40625 C 35.1875 33.34375 34.792969 33.53125 34.582031 33.875 L 29.828125 41.691406 L 20.609375 36.203125 L 26.566406 27.566406 C 26.777344 27.261719 26.800781 26.863281 26.628906 26.535156 C 26.457031 26.207031 26.117188 26 25.746094 26 L 21.5 26 C 21.1875 26 20.890625 26.148438 20.703125 26.402344 L 14.78125 34.28125 C 14.769531 34.296875 14.757813 34.3125 14.75 34.328125 C 14.476563 34.734375 14.027344 35 13.5 35 C 12.660156 35 12 34.339844 12 33.5 C 12 33.15625 12.121094 32.847656 12.328125 32.578125 C 12.359375 32.539063 12.386719 32.5 12.410156 32.457031 L 19.082031 23.898438 L 18.953125 23.984375 C 19.066406 23.910156 19.164063 23.8125 19.238281 23.695313 C 19.511719 23.273438 19.964844 23 20.5 23 Z M 22 28 L 23.839844 28 L 18.886719 35.171875 L 17.316406 34.238281 Z M 34.949219 37.121094 C 35.570313 40.089844 36.21875 43.492188 36.640625 45.75 L 31.546875 42.714844 Z M 19.546875 37.894531 L 29.292969 43.703125 L 33.765625 53.0625 L 33.746094 52.957031 C 33.761719 53.035156 33.785156 53.109375 33.816406 53.175781 C 33.9375 53.441406 34 53.710938 34 54 L 34 66 C 34 67.117188 33.117188 68 32 68 C 30.882813 68 30 67.117188 30 66 L 30 55.4375 C 30 55.222656 29.929688 55.015625 29.800781 54.84375 L 23.640625 46.53125 C 23.417969 46.238281 23.050781 46.085938 22.6875 46.140625 C 22.320313 46.195313 22.015625 46.449219 21.890625 46.796875 L 15.207031 65.746094 L 16.109375 66.015625 C 15.597656 65.863281 15.054688 66.140625 14.878906 66.648438 C 14.605469 67.433594 13.882813 68 13 68 C 11.882813 68 11 67.117188 11 66 C 11 65.816406 11.035156 65.625 11.105469 65.40625 C 11.117188 65.359375 11.128906 65.3125 11.136719 65.261719 C 11.171875 65.136719 12.832031 59.472656 14.558594 53.589844 C 16.300781 47.644531 18.101563 41.503906 18.183594 41.234375 C 18.183594 41.238281 18.183594 41.238281 18.183594 41.234375 C 18.34375 40.703125 18.96875 39.058594 19.546875 37.894531 Z M 60 56 C 59.449219 56 59 56.449219 59 57 C 59 57.550781 59.449219 58 60 58 C 60.550781 58 61 57.550781 61 57 C 61 56.449219 60.550781 56 60 56 Z M 63 59 C 62.449219 59 62 59.449219 62 60 C 62 60.550781 62.449219 61 63 61 C 63.550781 61 64 60.550781 64 60 C 64 59.449219 63.550781 59 63 59 Z M 54 61 C 53.449219 61 53 61.449219 53 62 C 53 62.550781 53.449219 63 54 63 C 54.550781 63 55 62.550781 55 62 C 55 61.449219 54.550781 61 54 61 Z M 46 68 C 45.449219 68 45 68.449219 45 69 C 45 69.550781 45.449219 70 46 70 C 46.550781 70 47 69.550781 47 69 C 47 68.449219 46.550781 68 46 68 Z M 50 68 C 49.449219 68 49 68.449219 49 69 C 49 69.550781 49.449219 70 50 70 C 50.550781 70 51 69.550781 51 69 C 51 68.449219 50.550781 68 50 68 Z M 54 68 C 53.449219 68 53 68.449219 53 69 C 53 69.550781 53.449219 70 54 70 C 54.550781 70 55 69.550781 55 69 C 55 68.449219 54.550781 68 54 68 Z M 58 68 C 57.449219 68 57 68.449219 57 69 C 57 69.550781 57.449219 70 58 70 C 58.550781 70 59 69.550781 59 69 C 59 68.449219 58.550781 68 58 68 Z M 62 68 C 61.449219 68 61 68.449219 61 69 C 61 69.550781 61.449219 70 62 70 C 62.550781 70 63 69.550781 63 69 C 63 68.449219 62.550781 68 62 68 Z M 66 68 C 65.449219 68 65 68.449219 65 69 C 65 69.550781 65.449219 70 66 70 C 66.550781 70 67 69.550781 67 69 C 67 68.449219 66.550781 68 66 68 Z M 70 68 C 69.449219 68 69 68.449219 69 69 C 69 69.550781 69.449219 70 70 70 C 70.550781 70 71 69.550781 71 69 C 71 68.449219 70.550781 68 70 68 Z"/></svg>