<svg fill="#FFFFFF" xmlns="http://www.w3.org/2000/svg"  viewBox="0 0 512 512" width="64px" height="64px"><path d="M 96 24 A 7.994 7.994 0 0 0 88.189453 30.259766 L 73.580078 96 L 56 96 A 8 8 0 0 0 48 104 L 48 128 A 8 8 0 0 0 56 136 L 72 136 L 72 472 L 16 472 A 8 8 0 0 0 16 488 L 496 488 A 8 8 0 0 0 496 472 L 440 472 L 440 136 L 456 136 A 8 8 0 0 0 464 128 L 464 104 A 8 8 0 0 0 456 96 L 438.41992 96 L 423.81055 30.259766 A 7.994 7.994 0 0 0 416 24 L 96 24 z M 102.41992 40 L 409.58008 40 L 422.0293 96 L 89.970703 96 L 102.41992 40 z M 112 72 A 8 8 0 0 0 112 88 L 168 88 A 8 8 0 0 0 168 72 L 112 72 z M 192 72 A 8 8 0 0 0 192 88 L 200 88 A 8 8 0 0 0 200 72 L 192 72 z M 64 112 L 448 112 L 448 120 L 64 120 L 64 112 z M 88 136 L 424 136 L 424 472 L 296 472 L 296 400 A 8 8 0 0 0 288 392 L 224 392 A 8 8 0 0 0 216 400 L 216 472 L 88 472 L 88 136 z M 128 144 A 8 8 0 0 0 120 152 L 120 376 A 8 8 0 0 0 128 384 L 192 384 A 8 8 0 0 0 200 376 L 200 152 A 8 8 0 0 0 192 144 L 128 144 z M 224 144 A 8 8 0 0 0 216 152 L 216 376 A 8 8 0 0 0 224 384 L 288 384 A 8 8 0 0 0 296 376 L 296 152 A 8 8 0 0 0 288 144 L 224 144 z M 320 144 A 8 8 0 0 0 312 152 L 312 376 A 8 8 0 0 0 320 384 L 384 384 A 8 8 0 0 0 392 376 L 392 152 A 8 8 0 0 0 384 144 L 320 144 z M 136 160 L 152 160 L 152 184 L 136 184 L 136 160 z M 168 160 L 184 160 L 184 184 L 168 184 L 168 160 z M 232 160 L 248 160 L 248 184 L 232 184 L 232 160 z M 264 160 L 280 160 L 280 184 L 264 184 L 264 160 z M 328 160 L 344 160 L 344 184 L 328 184 L 328 160 z M 360 160 L 376 160 L 376 184 L 360 184 L 360 160 z M 136 200 L 152 200 L 152 224 L 136 224 L 136 200 z M 168 200 L 184 200 L 184 224 L 168 224 L 168 200 z M 232 200 L 248 200 L 248 224 L 232 224 L 232 200 z M 264 200 L 280 200 L 280 224 L 264 224 L 264 200 z M 328 200 L 344 200 L 344 224 L 328 224 L 328 200 z M 360 200 L 376 200 L 376 224 L 360 224 L 360 200 z M 136 240 L 184 240 L 184 256 L 136 256 L 136 240 z M 232 240 L 280 240 L 280 256 L 232 256 L 232 240 z M 328 240 L 376 240 L 376 256 L 328 256 L 328 240 z M 136 272 L 152 272 L 152 296 L 136 296 L 136 272 z M 168 272 L 184 272 L 184 296 L 168 296 L 168 272 z M 232 272 L 248 272 L 248 296 L 232 296 L 232 272 z M 264 272 L 280 272 L 280 296 L 264 296 L 264 272 z M 328 272 L 344 272 L 344 296 L 328 296 L 328 272 z M 360 272 L 376 272 L 376 296 L 360 296 L 360 272 z M 136 312 L 152 312 L 152 336 L 136 336 L 136 312 z M 168 312 L 184 312 L 184 336 L 168 336 L 168 312 z M 232 312 L 248 312 L 248 336 L 232 336 L 232 312 z M 264 312 L 280 312 L 280 336 L 264 336 L 264 312 z M 328 312 L 344 312 L 344 336 L 328 336 L 328 312 z M 360 312 L 376 312 L 376 336 L 360 336 L 360 312 z M 136 352 L 184 352 L 184 368 L 136 368 L 136 352 z M 232 352 L 280 352 L 280 368 L 232 368 L 232 352 z M 328 352 L 376 352 L 376 368 L 328 368 L 328 352 z M 232 408 L 280 408 L 280 472 L 232 472 L 232 408 z M 264 424 A 8 8 0 0 0 256 432 L 256 448 A 8 8 0 0 0 272 448 L 272 432 A 8 8 0 0 0 264 424 z"/></svg>